<svg width="51" height="42" viewBox="0 0 51 42" fill="none" xmlns="http://www.w3.org/2000/svg">
<path d="M26.5958 42C24.4807 42 22.4897 41.1795 20.9952 39.6885C19.5006 38.1974 18.6715 36.2146 18.6741 34.1056C18.6741 32.1438 19.3897 31.4811 20.6915 28.8514H7.92171C3.55421 28.8514 0 25.3091 0 20.9622C0 16.6126 3.55421 13.073 7.92171 13.073H20.6915C19.3871 10.4433 18.6741 9.77272 18.6741 7.81094C18.6768 5.7019 19.498 3.72435 20.9978 2.23329C23.987 -0.743555 29.2047 -0.746184 32.1965 2.23592L51 20.9622L32.1965 39.6885C30.7019 41.1795 28.7109 42 26.5958 42ZM7.92171 18.3325C6.46412 18.3325 5.28114 19.5132 5.28114 20.9622C5.28114 22.4112 6.46412 23.5919 7.92171 23.5919H33.4244L24.729 32.2516C24.2299 32.7486 23.9553 33.4061 23.9553 34.1082C23.9553 34.8156 24.2299 35.473 24.729 35.97C25.7297 36.9641 27.4619 36.9641 28.4627 35.97L43.5325 20.9622L28.4627 5.95436C27.4619 4.96032 25.7297 4.96032 24.729 5.95436C24.2299 6.45138 23.9553 7.10881 23.9553 7.81094C23.9553 8.51571 24.2299 9.17577 24.729 9.67279L33.4244 18.3325H7.92171Z" fill="white" fill-opacity="0.76"/>
</svg>
