<svg width="27" height="27" viewBox="0 0 27 27" fill="none" xmlns="http://www.w3.org/2000/svg">
<path d="M13.5215 16.3236C16.2675 16.3236 19.128 16.921 22.1029 18.116C25.0778 19.3109 26.5652 20.8745 26.5652 22.8069V26.087H0.478271V22.8069C0.478271 20.8745 1.96572 19.3109 4.94062 18.116C7.91551 16.921 10.7756 16.3236 13.5215 16.3236ZM13.5215 13.0435C11.7416 13.0435 10.216 12.4078 8.94489 11.1364C7.67373 9.86495 7.03802 8.33942 7.03774 6.55978C7.03747 4.78013 7.67319 3.24185 8.94489 1.94495C10.2166 0.648045 11.7421 -0.00027112 13.5215 8.50529e-08C15.301 0.00027129 16.8265 0.648587 18.0982 1.94495C19.3699 3.24131 20.0056 4.77959 20.0054 6.55978C20.0051 8.33997 19.3694 9.8655 18.0982 11.1364C16.8271 12.4072 15.3015 13.0429 13.5215 13.0435Z" fill="#164863"/>
</svg>
