<svg width="30" height="30" viewBox="0 0 30 30" fill="none" xmlns="http://www.w3.org/2000/svg">
<path d="M28.3592 20.6247C28.8281 20.6247 29.2188 20.781 29.5313 21.0935C29.8438 21.406 30 21.7966 30 22.2655V28.0467C30 29.3489 29.4531 30 28.3592 30C20.5987 30 13.9322 27.2135 8.35947 21.6405C2.78677 16.0676 0.000277774 9.40098 0 1.64081C0 0.546937 0.651102 0 1.95331 0H7.73448C8.20336 0 8.59405 0.156248 8.90654 0.468743C9.21904 0.781239 9.37529 1.17193 9.37529 1.64081C9.37529 3.67217 9.68778 5.62534 10.3128 7.50031C10.5211 8.17752 10.3908 8.75043 9.92195 9.21904L6.71866 12.0315C9.11446 17.0314 12.9426 20.8075 18.2031 23.3597L20.7814 20.0785C21.0939 19.766 21.4846 19.6097 21.9534 19.6097C22.214 19.6097 22.3964 19.6358 22.5005 19.6881C24.3755 20.3131 26.3287 20.6255 28.36 20.6255L28.3592 20.6247Z" fill="#164863"/>
</svg>
